<svg width="90" height="90" viewBox="0 0 90 90" fill="none" xmlns="http://www.w3.org/2000/svg">
    <circle cx="45" cy="45" r="45" fill="#F4F4F6"/>
    <g clip-path="url(#yat47kqt5a)" fill="#1C1D21">
        <g opacity=".4">
            <path d="M63.927 39.763A1.25 1.25 0 0 1 64.5 42L60 45.375V42.25L63 40a1.25 1.25 0 0 1 .927-.237zM27 40l3 2.25v3.125L25.5 42a1.25 1.25 0 0 1 1.5-2z"/>
        </g>
        <path d="M37.75 33v-2.75a1.25 1.25 0 0 1 2.5 0V33a1.25 1.25 0 0 1-2.5 0zM45 34.25A1.25 1.25 0 0 0 46.25 33v-2.75a1.25 1.25 0 0 0-2.5 0V33A1.25 1.25 0 0 0 45 34.25zm6 0A1.25 1.25 0 0 0 52.25 33v-2.75a1.25 1.25 0 0 0-2.5 0V33A1.25 1.25 0 0 0 51 34.25z"/>
        <path opacity=".6" fill-rule="evenodd" clip-rule="evenodd" d="M30 54v.75a5.016 5.016 0 0 0 5 5h20a5.016 5.016 0 0 0 5-5V54H30z"/>
        <path opacity=".4" fill-rule="evenodd" clip-rule="evenodd" d="M60 42.25v-2.5a2.5 2.5 0 0 0-2.5-2.5h-25a2.5 2.5 0 0 0-2.5 2.5V54h30V42.25z"/>
    </g>
    <defs>
        <clipPath id="yat47kqt5a">
            <path fill="#fff" transform="translate(25 25)" d="M0 0h40v40H0z"/>
        </clipPath>
    </defs>
</svg>
