<svg width="90" height="90" viewBox="0 0 90 90" fill="none" xmlns="http://www.w3.org/2000/svg">
    <circle cx="45" cy="45" r="45" fill="#F4F4F6"/>
    <path d="M46.983 52.15h-3.966v2.367h3.966V52.15zM38.25 29.517c0 .666-.533 1.2-1.183 1.2h-1.584c-2.85 0-5.166 2.316-5.166 5.15v9.8a4.341 4.341 0 0 0-2.384 3.883V35.867c0-4.15 3.384-7.534 7.55-7.534h1.584c.65 0 1.183.534 1.183 1.184zM62.067 35.867V49.55c0-1.7-.967-3.167-2.384-3.883v-9.8c0-2.834-2.316-5.15-5.166-5.15h-1.584a1.191 1.191 0 0 1 0-2.384h1.584c4.166 0 7.55 3.384 7.55 7.534z" fill="#1C1D21"/>
    <path opacity=".4" d="M43.017 49.55v7.75a4.37 4.37 0 0 1-4.367 4.367H32.3a4.37 4.37 0 0 1-4.367-4.367v-7.75c0-1.7.967-3.167 2.384-3.883a4.204 4.204 0 0 1 1.983-.484h6.35a4.37 4.37 0 0 1 4.367 4.367zM62.067 49.55v7.75a4.37 4.37 0 0 1-4.367 4.367h-6.35a4.37 4.37 0 0 1-4.367-4.367v-7.75a4.37 4.37 0 0 1 4.367-4.367h6.35c.717 0 1.383.167 1.983.484a4.341 4.341 0 0 1 2.384 3.883z" fill="#1C1D21"/>
</svg>
