<svg width="90" height="90" viewBox="0 0 90 90" fill="none" xmlns="http://www.w3.org/2000/svg">
    <circle cx="45" cy="45" r="45" fill="#E7E7FF"/>
    <path opacity=".4" d="M51.983 28.333H38.017c-6.067 0-9.684 3.617-9.684 9.684v13.95c0 6.083 3.617 9.7 9.684 9.7h13.95c6.066 0 9.683-3.617 9.683-9.684V38.017c.017-6.067-3.6-9.684-9.666-9.684z" fill="#33F"/>
    <path d="M53.05 40.683a1.179 1.179 0 0 0-.633-.633 1.252 1.252 0 0 0-.433-.083h-3.1a1.16 1.16 0 0 0-1.167 1.166c0 .65.517 1.167 1.167 1.167h.3l-3.517 3.517-1.7-2.534c-.2-.283-.5-.483-.85-.516a1.127 1.127 0 0 0-.933.333l-4.967 4.967c-.45.45-.45 1.183 0 1.65.233.233.517.333.817.333.3 0 .6-.117.816-.333l3.967-3.967 1.7 2.533c.2.284.5.484.85.517.367.033.683-.083.933-.333l4.534-4.534v.3c0 .65.516 1.167 1.166 1.167a1.16 1.16 0 0 0 1.167-1.167v-3.116c-.033-.15-.05-.3-.117-.434z" fill="#33F"/>
</svg>
