<svg width="80" height="80" viewBox="0 0 80 80" fill="none" xmlns="http://www.w3.org/2000/svg">
    <path d="M70.8 23.18a23.786 23.786 0 0 1-6.834 1.873 11.934 11.934 0 0 0 5.232-6.583 23.82 23.82 0 0 1-7.557 2.887 11.883 11.883 0 0 0-8.685-3.757c-6.572 0-11.9 5.327-11.9 11.899 0 .932.105 1.84.308 2.711-9.89-.496-18.657-5.233-24.526-12.433a11.842 11.842 0 0 0-1.611 5.983c0 4.128 2.1 7.77 5.293 9.904a11.85 11.85 0 0 1-5.39-1.488v.15c0 5.765 4.101 10.574 9.545 11.668a11.912 11.912 0 0 1-5.374.203c1.514 4.728 5.909 8.168 11.116 8.264a23.874 23.874 0 0 1-14.779 5.094c-.96 0-1.907-.057-2.838-.167a33.679 33.679 0 0 0 18.24 5.347c21.888 0 33.857-18.132 33.857-33.857 0-.516-.012-1.029-.034-1.54A24.172 24.172 0 0 0 70.8 23.18z" fill="#2AA9E0"/>
</svg>
