<svg width="80" height="80" viewBox="0 0 80 80" fill="none" xmlns="http://www.w3.org/2000/svg">
    <path d="M40.209 13.2c-11.272 0-14.57.012-15.21.065-2.313.192-3.753.556-5.32 1.337a10.778 10.778 0 0 0-3.103 2.271c-1.713 1.778-2.752 3.966-3.127 6.567-.183 1.262-.236 1.52-.247 7.969-.004 2.15 0 4.979 0 8.773 0 11.263.012 14.557.066 15.196.187 2.251.54 3.667 1.288 5.217 1.428 2.965 4.157 5.19 7.371 6.022 1.114.286 2.343.444 3.92.519.67.029 7.485.05 14.304.05 6.82 0 13.639-.009 14.29-.042 1.828-.086 2.89-.229 4.063-.532a11.305 11.305 0 0 0 7.371-6.034c.733-1.512 1.105-2.982 1.273-5.115.037-.465.052-7.882.052-15.288 0-7.407-.017-14.81-.053-15.275-.17-2.168-.542-3.625-1.299-5.166a10.701 10.701 0 0 0-2.311-3.167c-1.786-1.706-3.97-2.744-6.574-3.12-1.261-.182-1.512-.236-7.966-.247h-8.788z" fill="url(#5cy24argaa)"/>
    <path d="M40.209 13.2c-11.272 0-14.57.012-15.21.065-2.313.192-3.753.556-5.32 1.337a10.778 10.778 0 0 0-3.103 2.271c-1.713 1.778-2.752 3.966-3.127 6.567-.183 1.262-.236 1.52-.247 7.969-.004 2.15 0 4.979 0 8.773 0 11.263.012 14.557.066 15.196.187 2.251.54 3.667 1.288 5.217 1.428 2.965 4.157 5.19 7.371 6.022 1.114.286 2.343.444 3.92.519.67.029 7.485.05 14.304.05 6.82 0 13.639-.009 14.29-.042 1.828-.086 2.89-.229 4.063-.532a11.305 11.305 0 0 0 7.371-6.034c.733-1.512 1.105-2.982 1.273-5.115.037-.465.052-7.882.052-15.288 0-7.407-.017-14.81-.053-15.275-.17-2.168-.542-3.625-1.299-5.166a10.701 10.701 0 0 0-2.311-3.167c-1.786-1.706-3.97-2.744-6.574-3.12-1.261-.182-1.512-.236-7.966-.247h-8.788z" fill="url(#mdgwk1p63b)"/>
    <path d="M40.196 20.26c-5.414 0-6.093.024-8.22.121-2.122.097-3.57.433-4.838.926a9.762 9.762 0 0 0-3.531 2.299 9.786 9.786 0 0 0-2.3 3.531c-.495 1.268-.831 2.717-.927 4.838-.095 2.127-.12 2.807-.12 8.22 0 5.414.024 6.092.12 8.218.098 2.122.434 3.571.927 4.839a9.77 9.77 0 0 0 2.299 3.53 9.762 9.762 0 0 0 3.53 2.302c1.268.493 2.717.829 4.839.926 2.126.097 2.805.12 8.219.12s6.092-.023 8.218-.12c2.122-.097 3.572-.433 4.84-.926a9.754 9.754 0 0 0 3.53-2.301 9.786 9.786 0 0 0 2.3-3.531c.49-1.268.827-2.717.927-4.838.095-2.127.12-2.805.12-8.218 0-5.414-.025-6.094-.12-8.22-.1-2.122-.437-3.571-.927-4.839a9.784 9.784 0 0 0-2.3-3.531 9.743 9.743 0 0 0-3.53-2.299c-1.271-.493-2.72-.829-4.843-.926-2.126-.097-2.803-.12-8.219-.12h.006zm-1.788 3.593h1.788c5.323 0 5.954.02 8.056.115 1.943.089 2.998.413 3.7.686.931.362 1.594.794 2.292 1.491.697.698 1.13 1.362 1.492 2.293.272.702.598 1.757.686 3.7.096 2.102.116 2.733.116 8.053s-.02 5.951-.116 8.053c-.089 1.943-.414 2.998-.686 3.7a6.165 6.165 0 0 1-1.492 2.29 6.163 6.163 0 0 1-2.291 1.491c-.702.274-1.758.598-3.701.687-2.102.096-2.733.116-8.056.116-5.323 0-5.953-.02-8.055-.116-1.943-.09-2.998-.414-3.701-.687-.93-.362-1.595-.794-2.293-1.491-.698-.698-1.13-1.36-1.492-2.291-.273-.702-.598-1.757-.686-3.7-.096-2.102-.115-2.734-.115-8.057 0-5.324.02-5.951.115-8.053.089-1.944.413-2.998.686-3.701a6.176 6.176 0 0 1 1.492-2.293c.698-.697 1.362-1.13 2.293-1.491.702-.274 1.758-.598 3.701-.688 1.84-.083 2.552-.108 6.267-.112v.005zm12.43 3.31a2.392 2.392 0 1 0-.001 4.786 2.392 2.392 0 0 0 0-4.787v.001zm-10.642 2.795c-5.653 0-10.237 4.584-10.237 10.238 0 5.653 4.584 10.235 10.237 10.235 5.654 0 10.236-4.582 10.236-10.235 0-5.654-4.583-10.238-10.236-10.238zm0 3.593a6.645 6.645 0 1 1 0 13.29 6.645 6.645 0 0 1 0-13.29z" fill="#fff"/>
    <defs>
        <radialGradient id="5cy24argaa" cx="0" cy="0" r="1" gradientUnits="userSpaceOnUse" gradientTransform="matrix(0 -53.5034 49.7759 0 27.544 71.344)">
            <stop stop-color="#FD5"/>
            <stop offset=".1" stop-color="#FD5"/>
            <stop offset=".5" stop-color="#FF543E"/>
            <stop offset="1" stop-color="#C837AB"/>
        </radialGradient>
        <radialGradient id="mdgwk1p63b" cx="0" cy="0" r="1" gradientUnits="userSpaceOnUse" gradientTransform="rotate(78.678 -8.348 11.08) scale(23.9165 98.6096)">
            <stop stop-color="#3771C8"/>
            <stop offset=".128" stop-color="#3771C8"/>
            <stop offset="1" stop-color="#60F" stop-opacity="0"/>
        </radialGradient>
    </defs>
</svg>
