<svg width="80" height="80" viewBox="0 0 80 80" fill="none" xmlns="http://www.w3.org/2000/svg">
    <path d="M70.662 24.596a8.015 8.015 0 0 0-5.659-5.658C60.015 17.6 40 17.6 40 17.6s-20.015 0-25.004 1.338a8.014 8.014 0 0 0-5.658 5.658C8 29.586 8 40.001 8 40.001s0 10.415 1.338 15.404a8.014 8.014 0 0 0 5.658 5.658C19.986 62.402 40 62.402 40 62.402s20.014 0 25.004-1.339a8.015 8.015 0 0 0 5.658-5.658C72 50.416 72 40.001 72 40.001s-.005-10.416-1.338-15.405z" fill="red"/>
    <path d="m33.594 49.6 16.627-9.599-16.627-9.599V49.6z" fill="#fff"/>
</svg>
