<svg width="90" height="90" viewBox="0 0 90 90" fill="none" xmlns="http://www.w3.org/2000/svg">
    <circle cx="45" cy="45" r="45" fill="#F4F4F6"/>
    <path opacity=".4" d="M53.333 61.667H36.667C33 61.667 30 58.667 30 55V35c0-3.667 3-6.667 6.667-6.667h16.666C57 28.333 60 31.333 60 35v20c0 3.667-3 6.667-6.667 6.667z" fill="#1C1D21"/>
    <path d="M52.083 43.333H37.917A2.93 2.93 0 0 1 35 40.417V36.25a2.93 2.93 0 0 1 2.917-2.917h14.166A2.93 2.93 0 0 1 55 36.25v4.167a2.93 2.93 0 0 1-2.917 2.916zM43.1 53.467l-1.083-1.084 1.033-1.033a1.257 1.257 0 0 0 0-1.767 1.257 1.257 0 0 0-1.767 0l-1.033 1.034-.983-.984a1.258 1.258 0 0 0-1.767 0 1.258 1.258 0 0 0 0 1.767l.983.983-1.033 1.034a1.257 1.257 0 0 0 0 1.766c.25.25.567.367.883.367.317 0 .634-.117.884-.367l1.033-1.033 1.083 1.083c.25.25.567.367.884.367.316 0 .633-.117.883-.367a1.258 1.258 0 0 0 0-1.766zM52.517 52.217c-.917 0-1.684-.75-1.684-1.667s.734-1.667 1.65-1.667h.034c.916 0 1.666.75 1.666 1.667s-.75 1.667-1.666 1.667zM49.15 55.817a1.657 1.657 0 0 1-1.667-1.65v-.034c0-.916.75-1.666 1.667-1.666s1.667.75 1.667 1.666c0 .917-.75 1.684-1.667 1.684z" fill="#1C1D21"/>
</svg>
