<svg width="84" height="85" viewBox="0 0 84 85" fill="none" xmlns="http://www.w3.org/2000/svg">
    <circle cx="42" cy="42.002" r="42" fill="#F4F4F6"/>
    <path opacity=".4" d="M48.984 25.335H35.017c-6.066 0-9.683 3.616-9.683 9.683v13.95c0 6.083 3.617 9.7 9.683 9.7h13.95c6.067 0 9.684-3.617 9.684-9.683V35.018c.016-6.067-3.6-9.683-9.667-9.683z" fill="#1C1D21"/>
    <path d="M36.7 38.252a5.513 5.513 0 0 1-3.918-1.617 1.257 1.257 0 0 1 0-1.767 1.257 1.257 0 0 1 1.767 0 3.048 3.048 0 0 0 4.3 0 1.257 1.257 0 0 1 1.767 0 1.257 1.257 0 0 1 0 1.767 5.583 5.583 0 0 1-3.917 1.617zM47.3 38.252a5.513 5.513 0 0 1-3.916-1.617 1.257 1.257 0 0 1 0-1.767 1.257 1.257 0 0 1 1.767 0 3.048 3.048 0 0 0 4.3 0 1.257 1.257 0 0 1 1.766 0 1.257 1.257 0 0 1 0 1.767 5.583 5.583 0 0 1-3.916 1.617zM48 43.035H36c-1.167 0-2.117.95-2.117 2.133 0 4.483 3.65 8.133 8.133 8.133 4.483 0 8.134-3.65 8.134-8.133-.017-1.166-.984-2.133-2.15-2.133z" fill="#1C1D21"/>
</svg>
