<svg width="84" height="85" viewBox="0 0 84 85" fill="none" xmlns="http://www.w3.org/2000/svg">
    <circle cx="42" cy="42.002" r="42" fill="#F4F4F6"/>
    <path opacity=".4" d="M48.984 25.335H35.017c-6.066 0-9.683 3.616-9.683 9.683v13.95c0 6.083 3.617 9.7 9.683 9.7h13.95c6.067 0 9.684-3.617 9.684-9.683V35.018c.016-6.067-3.6-9.683-9.667-9.683z" fill="#1C1D21"/>
    <path d="M50.05 37.685a1.178 1.178 0 0 0-.634-.634 1.252 1.252 0 0 0-.433-.083h-3.1a1.16 1.16 0 0 0-1.167 1.167c0 .65.517 1.166 1.167 1.166h.3l-3.517 3.517-1.7-2.533c-.2-.283-.5-.483-.85-.517a1.127 1.127 0 0 0-.933.334l-4.967 4.966c-.45.45-.45 1.184 0 1.65.234.233.517.333.817.333.3 0 .6-.116.817-.333l3.966-3.967 1.7 2.534c.2.283.5.483.85.517.367.033.684-.084.934-.334l4.533-4.533v.3c0 .65.517 1.166 1.167 1.166a1.16 1.16 0 0 0 1.166-1.166v-3.117c-.033-.15-.05-.3-.116-.433z" fill="#1C1D21"/>
</svg>
