<svg width="84" height="85" viewBox="0 0 84 85" fill="none" xmlns="http://www.w3.org/2000/svg">
    <circle cx="42" cy="42.002" r="42" fill="#F4F4F6"/>
    <path d="M43.984 49.151h-3.966v2.367h3.966v-2.367zM35.25 26.518c0 .667-.533 1.2-1.183 1.2h-1.583c-2.85 0-5.167 2.317-5.167 5.15v9.8a4.341 4.341 0 0 0-2.383 3.883V32.868c0-4.15 3.383-7.533 7.55-7.533h1.583c.65 0 1.183.533 1.183 1.183zM59.067 32.868v13.683c0-1.7-.967-3.166-2.384-3.883v-9.8c0-2.833-2.316-5.15-5.166-5.15h-1.584a1.192 1.192 0 0 1 0-2.383h1.584c4.166 0 7.55 3.383 7.55 7.533z" fill="#1C1D21"/>
    <path opacity=".4" d="M40.017 46.551v7.75a4.37 4.37 0 0 1-4.367 4.367H29.3a4.37 4.37 0 0 1-4.366-4.367v-7.75c0-1.7.966-3.166 2.383-3.883a4.206 4.206 0 0 1 1.983-.483h6.35a4.37 4.37 0 0 1 4.367 4.366zM59.066 46.551v7.75a4.37 4.37 0 0 1-4.367 4.367h-6.35a4.37 4.37 0 0 1-4.367-4.367v-7.75a4.37 4.37 0 0 1 4.367-4.366h6.35c.717 0 1.383.166 1.983.483a4.341 4.341 0 0 1 2.384 3.883z" fill="#1C1D21"/>
</svg>
