<svg width="84" height="85" viewBox="0 0 84 85" fill="none" xmlns="http://www.w3.org/2000/svg">
    <circle cx="42" cy="42.002" r="42" fill="#F4F4F6"/>
    <path d="M39.15 39.235v13.45c0 3.3-2.7 5.983-5.983 5.983a5.99 5.99 0 0 1-5.983-5.983c0-3.284 2.683-5.967 5.983-5.967 1.383 0 2.633.483 3.65 1.267V39.9l2.333-.666zM56.816 34.202v15.266a5.99 5.99 0 0 1-5.983 5.983c-3.283 0-5.983-2.683-5.983-5.983 0-3.283 2.7-5.967 5.983-5.967 1.4 0 2.65.484 3.667 1.284v-9.917l2.316-.666z" fill="#1C1D21"/>
    <path opacity=".4" d="M56.816 30.635V34.2l-20 5.7v-6.65c0-2.45 1.484-4.35 3.834-4.983l9.633-2.633c1.95-.534 3.6-.35 4.767.55 1.183.883 1.766 2.383 1.766 4.45z" fill="#1C1D21"/>
</svg>
