<svg width="84" height="85" viewBox="0 0 84 85" fill="none" xmlns="http://www.w3.org/2000/svg">
    <circle cx="42" cy="42.002" r="42" fill="#F4F4F6"/>
    <path fill-rule="evenodd" clip-rule="evenodd" d="M36.375 41.263a6.91 6.91 0 0 1-2.5 0v15.739a1.25 1.25 0 0 0 2.5 0V41.263z" fill="#1C1D21"/>
    <path opacity=".4" fill-rule="evenodd" clip-rule="evenodd" d="M30.956 25.768a1.25 1.25 0 0 1 1.027 1.439l-.868 5.211h2.76v-5.416a1.25 1.25 0 1 1 2.5 0v5.416h2.76l-.868-5.211a1.25 1.25 0 1 1 2.466-.411l.937 5.622h.009a6.873 6.873 0 0 1 .321 2.11 6.875 6.875 0 1 1-13.428-2.11h.008l.937-5.622a1.25 1.25 0 0 1 1.439-1.027z" fill="#1C1D21"/>
    <path fill-rule="evenodd" clip-rule="evenodd" d="M55.125 48.252v8.75a1.25 1.25 0 0 1-2.5 0v-8.75h2.5z" fill="#1C1D21"/>
    <path opacity=".4" d="M45.126 48.251h10v-21.25a1.233 1.233 0 0 0-1.672-1.171c-3.25 1.171-5.86 5.14-7.735 11.765a64.512 64.512 0 0 0-1.843 9.266 1.266 1.266 0 0 0 .312.969 1.283 1.283 0 0 0 .938.421z" fill="#1C1D21"/>
</svg>
