<svg width="84" height="85" viewBox="0 0 84 85" fill="none" xmlns="http://www.w3.org/2000/svg">
    <circle cx="42" cy="42.002" r="42" fill="#F4F4F6"/>
    <path opacity=".4" d="m58.101 39.401-1.633 6.967c-1.4 6.017-4.167 8.45-9.367 7.95a17.528 17.528 0 0 1-2.7-.45l-2.8-.667c-6.95-1.65-9.1-5.083-7.467-12.05l1.634-6.983c.333-1.417.733-2.65 1.233-3.667 1.95-4.033 5.267-5.116 10.833-3.8l2.784.65c6.983 1.634 9.116 5.084 7.483 12.05z" fill="#1C1D21"/>
    <path d="M47.1 54.318c-1.033.7-2.333 1.284-3.916 1.8l-2.633.867c-6.617 2.133-10.1.35-12.25-6.267l-2.134-6.583c-2.133-6.617-.366-10.117 6.25-12.25l2.634-.867c.683-.216 1.333-.4 1.95-.517-.5 1.017-.9 2.25-1.234 3.667l-1.633 6.983c-1.633 6.967.517 10.4 7.467 12.05l2.8.667c.966.233 1.866.383 2.7.45zM51.15 39.518c-.1 0-.2-.017-.316-.033l-8.084-2.05a1.249 1.249 0 0 1-.9-1.517 1.25 1.25 0 0 1 1.517-.9l8.083 2.05a1.25 1.25 0 0 1 .9 1.517c-.133.55-.65.933-1.2.933z" fill="#1C1D21"/>
    <path d="M46.267 45.151c-.1 0-.2-.016-.317-.033l-4.85-1.233a1.249 1.249 0 0 1-.9-1.517 1.25 1.25 0 0 1 1.517-.9l4.85 1.233a1.25 1.25 0 0 1 .9 1.517 1.214 1.214 0 0 1-1.2.933z" fill="#1C1D21"/>
</svg>
