<svg width="84" height="85" viewBox="0 0 84 85" fill="none" xmlns="http://www.w3.org/2000/svg">
    <circle cx="42" cy="42.002" r="42" fill="#F4F4F6"/>
    <path d="M50.333 59.918H33.666a1.26 1.26 0 0 1-1.25-1.25c0-.683.567-1.25 1.25-1.25h16.667c.683 0 1.25.567 1.25 1.25a1.26 1.26 0 0 1-1.25 1.25z" fill="#1C1D21"/>
    <path opacity=".4" d="M52 53.668H32a6.665 6.665 0 0 1-6.666-6.667v-15a6.665 6.665 0 0 1 6.667-6.666h20A6.665 6.665 0 0 1 58.667 32v15a6.665 6.665 0 0 1-6.666 6.667z" fill="#1C1D21"/>
    <path d="M50.766 37.118h-6.133a1.26 1.26 0 0 1-1.25-1.25c0-.683.566-1.25 1.25-1.25h6.133c.684 0 1.25.567 1.25 1.25s-.55 1.25-1.25 1.25zM38.667 37.535c-.917 0-1.667-.75-1.667-1.667a1.66 1.66 0 0 1 1.667-1.666c.916 0 1.666.75 1.666 1.666a1.66 1.66 0 0 1-1.666 1.667zM33.417 37.535c-.917 0-1.667-.75-1.667-1.667a1.66 1.66 0 0 1 1.667-1.666h.016c.917 0 1.667.75 1.667 1.666 0 .917-.767 1.667-1.683 1.667zM50.766 46.768H33.249c-.683 0-1.267-.566-1.267-1.25 0-.683.55-1.25 1.234-1.25h17.55c.683 0 1.25.567 1.25 1.25 0 .684-.55 1.25-1.25 1.25z" fill="#1C1D21"/>
</svg>
