<svg width="84" height="85" viewBox="0 0 84 85" fill="none" xmlns="http://www.w3.org/2000/svg">
    <circle cx="42" cy="42.002" r="42" fill="#E7E7FF"/>
    <path opacity=".4" d="M50.333 58.668H33.667c-3.667 0-6.667-3-6.667-6.667v-20c0-3.666 3-6.666 6.667-6.666h16.666C54 25.335 57 28.335 57 32v20c0 3.667-3 6.667-6.667 6.667z" fill="#33F"/>
    <path d="M49.083 40.335H34.917A2.93 2.93 0 0 1 32 37.418v-4.167a2.93 2.93 0 0 1 2.917-2.916h14.166A2.93 2.93 0 0 1 52 33.25v4.167a2.93 2.93 0 0 1-2.917 2.917zM40.1 50.468l-1.083-1.083 1.033-1.034a1.258 1.258 0 0 0 0-1.766 1.258 1.258 0 0 0-1.766 0l-1.034 1.033-.983-.983a1.257 1.257 0 0 0-1.767 0 1.257 1.257 0 0 0 0 1.766l.984.984-1.034 1.033a1.258 1.258 0 0 0 0 1.767c.25.25.567.366.884.366.316 0 .633-.116.883-.366l1.033-1.034 1.084 1.084c.25.25.566.366.883.366.317 0 .633-.116.883-.366a1.258 1.258 0 0 0 0-1.767zM49.517 49.218c-.916 0-1.683-.75-1.683-1.667 0-.916.733-1.666 1.65-1.666h.033c.917 0 1.667.75 1.667 1.666 0 .917-.75 1.667-1.667 1.667zM46.15 52.818a1.657 1.657 0 0 1-1.668-1.65v-.033c0-.917.75-1.667 1.667-1.667s1.667.75 1.667 1.667c0 .916-.75 1.683-1.667 1.683z" fill="#33F"/>
</svg>
