<svg width="84" height="85" viewBox="0 0 84 85" fill="none" xmlns="http://www.w3.org/2000/svg">
    <circle cx="42" cy="42.002" r="42" fill="#F4F4F6"/>
    <path opacity=".4" d="M53.8 48.202c-.983-5.884-6.633-10.667-12.6-10.667-6.483 0-12.184 5.25-12.734 11.717-.216 2.5.584 4.866 2.234 6.65 1.633 1.783 3.933 2.766 6.433 2.766h7.8c2.817 0 5.284-1.1 6.967-3.083 1.683-1.983 2.35-4.617 1.9-7.383z" fill="#1C1D21"/>
    <path d="M39.133 35.101a4.883 4.883 0 1 0 0-9.766 4.883 4.883 0 0 0 0 9.766zM50.233 37.051a4.067 4.067 0 1 0 0-8.133 4.067 4.067 0 0 0 0 8.133zM56.25 43.551a3.25 3.25 0 1 0 0-6.5 3.25 3.25 0 0 0 0 6.5zM28.567 40.301a4.067 4.067 0 1 0 0-8.133 4.067 4.067 0 0 0 0 8.133z" fill="#1C1D21"/>
</svg>
