<svg width="84" height="85" viewBox="0 0 84 85" fill="none" xmlns="http://www.w3.org/2000/svg">
    <circle cx="42" cy="42.002" r="42" fill="#E7E7FF"/>
    <path opacity=".4" d="M50.633 30.752c-2.85 0-6.25 1.083-6.25 6.25v10c0 5.166 3.4 6.25 6.25 6.25s6.25-1.084 6.25-6.25v-10c0-5.167-3.4-6.25-6.25-6.25zM33.367 30.752c-2.85 0-6.25 1.083-6.25 6.25v10c0 5.166 3.4 6.25 6.25 6.25s6.25-1.084 6.25-6.25v-10c0-5.167-3.4-6.25-6.25-6.25z" fill="#33F"/>
    <path d="M44.384 40.752h-4.767v2.5h4.767v-2.5zM59.5 47.418a1.26 1.26 0 0 1-1.25-1.25v-8.333c0-.684.567-1.25 1.25-1.25s1.25.566 1.25 1.25v8.333a1.26 1.26 0 0 1-1.25 1.25zM24.5 47.418a1.26 1.26 0 0 1-1.25-1.25v-8.333c0-.684.567-1.25 1.25-1.25s1.25.566 1.25 1.25v8.333a1.26 1.26 0 0 1-1.25 1.25z" fill="#33F"/>
</svg>
