<svg width="84" height="85" viewBox="0 0 84 85" fill="none" xmlns="http://www.w3.org/2000/svg">
    <circle cx="42" cy="42.002" r="42" fill="#E7E7FF"/>
    <path d="M38.6 45.401v-1.85c0-.716-.533-1.066-1.183-.783l-8.35 3.6c-1.317.567-2.383-.133-2.383-1.55v-2.2c0-1.133.85-2.45 1.9-2.883l9.5-4.084c.266-.133.5-.483.5-.783v-5.1c0-1.6 1.183-3.517 2.6-4.25a1.8 1.8 0 0 1 1.6 0c1.433.733 2.616 2.633 2.616 4.233v5.1c0 .3.234.65.5.784l1.734.733-9.034 9.033z" fill="#33F"/>
    <path opacity=".4" d="M57.317 42.618v2.2c0 1.417-1.066 2.117-2.383 1.55l-8.35-3.6c-.667-.267-1.183.067-1.183.783v4.85c0 .384.216.934.5 1.2l3.866 3.884c.4.4.584 1.2.4 1.75l-.75 2.267a1.705 1.705 0 0 1-2.366.983l-3.967-3.334c-.6-.516-1.583-.516-2.183 0l-3.967 3.334c-.917.467-2.033 0-2.333-.983l-.75-2.267c-.184-.567 0-1.35.4-1.75l3.866-3.883c.267-.267.484-.817.484-1.2v-3l9.033-9.034 7.783 3.35c1.05.45 1.9 1.767 1.9 2.9z" fill="#33F"/>
</svg>
