<svg width="90" height="90" viewBox="0 0 90 90" fill="none" xmlns="http://www.w3.org/2000/svg">
    <circle cx="45" cy="45" r="45" fill="#F4F4F6"/>
    <path d="M53.333 62.917H36.667a1.26 1.26 0 0 1-1.25-1.25c0-.684.566-1.25 1.25-1.25h16.666c.684 0 1.25.566 1.25 1.25a1.26 1.26 0 0 1-1.25 1.25z" fill="#1C1D21"/>
    <path opacity=".4" d="M55 56.667H35A6.665 6.665 0 0 1 28.333 50V35A6.665 6.665 0 0 1 35 28.333h20A6.665 6.665 0 0 1 61.667 35v15A6.665 6.665 0 0 1 55 56.667z" fill="#1C1D21"/>
    <path d="M53.767 40.117h-6.134a1.26 1.26 0 0 1-1.25-1.25c0-.684.567-1.25 1.25-1.25h6.134c.683 0 1.25.566 1.25 1.25 0 .683-.55 1.25-1.25 1.25zM41.667 40.533c-.917 0-1.667-.75-1.667-1.666a1.66 1.66 0 0 1 1.667-1.667c.916 0 1.666.75 1.666 1.667a1.66 1.66 0 0 1-1.666 1.666zM36.417 40.533c-.917 0-1.667-.75-1.667-1.666a1.66 1.66 0 0 1 1.667-1.667h.016c.917 0 1.667.75 1.667 1.667 0 .916-.767 1.666-1.683 1.666zM53.767 49.767H36.25c-.683 0-1.267-.567-1.267-1.25 0-.684.55-1.25 1.234-1.25h17.55c.683 0 1.25.566 1.25 1.25 0 .683-.55 1.25-1.25 1.25z" fill="#1C1D21"/>
</svg>
