<svg width="90" height="90" viewBox="0 0 90 90" fill="none" xmlns="http://www.w3.org/2000/svg">
    <circle cx="45" cy="45" r="45" fill="#F4F4F6"/>
    <path d="M42.15 42.233v13.45c0 3.3-2.7 5.984-5.983 5.984a5.99 5.99 0 0 1-5.984-5.984c0-3.283 2.684-5.966 5.984-5.966 1.383 0 2.633.483 3.65 1.266V42.9l2.333-.667zM59.817 37.2v15.267a5.99 5.99 0 0 1-5.984 5.983c-3.283 0-5.983-2.683-5.983-5.983 0-3.284 2.7-5.967 5.983-5.967 1.4 0 2.65.483 3.667 1.283v-9.916l2.317-.667z" fill="#1C1D21"/>
    <path opacity=".4" d="M59.817 33.633V37.2l-20 5.7v-6.65c0-2.45 1.483-4.35 3.833-4.983l9.633-2.634c1.95-.533 3.6-.35 4.767.55 1.183.884 1.767 2.384 1.767 4.45z" fill="#1C1D21"/>
</svg>
