<svg width="90" height="90" viewBox="0 0 90 90" fill="none" xmlns="http://www.w3.org/2000/svg">
    <circle cx="45" cy="45" r="45" fill="#F4F4F6"/>
    <path opacity=".4" d="M53.633 33.75c-2.85 0-6.25 1.083-6.25 6.25v10c0 5.167 3.4 6.25 6.25 6.25s6.25-1.083 6.25-6.25V40c0-5.167-3.4-6.25-6.25-6.25zM36.367 33.75c-2.85 0-6.25 1.083-6.25 6.25v10c0 5.167 3.4 6.25 6.25 6.25s6.25-1.083 6.25-6.25V40c0-5.167-3.4-6.25-6.25-6.25z" fill="#1C1D21"/>
    <path d="M47.383 43.75h-4.766v2.5h4.766v-2.5zM62.5 50.417a1.26 1.26 0 0 1-1.25-1.25v-8.334c0-.683.567-1.25 1.25-1.25s1.25.567 1.25 1.25v8.334a1.26 1.26 0 0 1-1.25 1.25zM27.5 50.417a1.26 1.26 0 0 1-1.25-1.25v-8.334c0-.683.567-1.25 1.25-1.25s1.25.567 1.25 1.25v8.334a1.26 1.26 0 0 1-1.25 1.25z" fill="#1C1D21"/>
</svg>
