<svg width="40" height="40" viewBox="0 0 40 40" fill="none" xmlns="http://www.w3.org/2000/svg">
    <path opacity=".4" d="M28.633 8.75c-2.85 0-6.25 1.083-6.25 6.25v10c0 5.167 3.4 6.25 6.25 6.25s6.25-1.083 6.25-6.25V15c0-5.167-3.4-6.25-6.25-6.25zM11.367 8.75c-2.85 0-6.25 1.083-6.25 6.25v10c0 5.167 3.4 6.25 6.25 6.25s6.25-1.083 6.25-6.25V15c0-5.167-3.4-6.25-6.25-6.25z" fill="#33F"/>
    <path d="M22.383 18.75h-4.766v2.5h4.766v-2.5zM37.5 25.417a1.26 1.26 0 0 1-1.25-1.25v-8.334c0-.683.567-1.25 1.25-1.25s1.25.567 1.25 1.25v8.334a1.26 1.26 0 0 1-1.25 1.25zM2.5 25.417a1.26 1.26 0 0 1-1.25-1.25v-8.334c0-.683.567-1.25 1.25-1.25s1.25.567 1.25 1.25v8.334a1.26 1.26 0 0 1-1.25 1.25z" fill="#33F"/>
</svg>
