<svg width="40" height="40" viewBox="0 0 40 40" fill="none" xmlns="http://www.w3.org/2000/svg">
    <path d="M16.6 23.4v-1.85c0-.717-.533-1.067-1.183-.783l-8.35 3.6c-1.317.566-2.384-.134-2.384-1.55v-2.2c0-1.134.85-2.45 1.9-2.884l9.5-4.083c.267-.133.5-.483.5-.783v-5.1c0-1.6 1.184-3.517 2.6-4.25a1.8 1.8 0 0 1 1.6 0C22.217 4.25 23.4 6.15 23.4 7.75v5.1c0 .3.233.65.5.783l1.733.734L16.6 23.4z" fill="#1C1D21"/>
    <path opacity=".4" d="M35.317 20.617v2.2c0 1.416-1.067 2.116-2.384 1.55l-8.35-3.6c-.666-.267-1.183.066-1.183.783v4.85c0 .383.217.933.5 1.2l3.867 3.883c.4.4.583 1.2.4 1.75l-.75 2.267c-.334.983-1.45 1.433-2.367.983l-3.967-3.333c-.6-.517-1.583-.517-2.183 0l-3.967 3.333c-.916.467-2.033 0-2.333-.983l-.75-2.267c-.183-.566 0-1.35.4-1.75l3.867-3.883c.266-.267.483-.817.483-1.2v-3l9.033-9.033 7.784 3.35c1.05.45 1.9 1.766 1.9 2.9z" fill="#1C1D21"/>
</svg>
