<svg width="90" height="90" viewBox="0 0 90 90" fill="none" xmlns="http://www.w3.org/2000/svg">
    <circle cx="45" cy="45" r="45" fill="#F4F4F6"/>
    <path opacity=".4" d="M56.8 51.2c-.983-5.883-6.633-10.667-12.6-10.667-6.483 0-12.183 5.25-12.733 11.717-.217 2.5.583 4.867 2.233 6.65 1.633 1.783 3.933 2.767 6.433 2.767h7.8c2.817 0 5.284-1.1 6.967-3.084 1.683-1.983 2.35-4.616 1.9-7.383z" fill="#1C1D21"/>
    <path d="M42.133 38.1a4.883 4.883 0 1 0 0-9.767 4.883 4.883 0 0 0 0 9.767zM53.233 40.05a4.067 4.067 0 1 0 0-8.133 4.067 4.067 0 0 0 0 8.133zM59.25 46.55a3.25 3.25 0 1 0 0-6.5 3.25 3.25 0 0 0 0 6.5zM31.567 43.3a4.067 4.067 0 1 0 0-8.133 4.067 4.067 0 0 0 0 8.133z" fill="#1C1D21"/>
</svg>
