<svg width="90" height="90" viewBox="0 0 90 90" fill="none" xmlns="http://www.w3.org/2000/svg">
    <circle cx="45" cy="45" r="45" fill="#F4F4F6"/>
    <path opacity=".4" d="M51.983 28.333H38.017c-6.067 0-9.684 3.617-9.684 9.684v13.95c0 6.083 3.617 9.7 9.684 9.7h13.95c6.066 0 9.683-3.617 9.683-9.684V38.017c.017-6.067-3.6-9.684-9.667-9.684z" fill="#1C1D21"/>
    <path d="M39.7 41.25a5.513 5.513 0 0 1-3.917-1.617 1.257 1.257 0 0 1 0-1.766 1.257 1.257 0 0 1 1.767 0 3.048 3.048 0 0 0 4.3 0 1.257 1.257 0 0 1 1.767 0 1.257 1.257 0 0 1 0 1.766A5.583 5.583 0 0 1 39.7 41.25zM50.3 41.25a5.513 5.513 0 0 1-3.917-1.617 1.257 1.257 0 0 1 0-1.766 1.257 1.257 0 0 1 1.767 0 3.048 3.048 0 0 0 4.3 0 1.257 1.257 0 0 1 1.767 0 1.257 1.257 0 0 1 0 1.766A5.583 5.583 0 0 1 50.3 41.25zM51 46.033H39c-1.167 0-2.117.95-2.117 2.134 0 4.483 3.65 8.133 8.134 8.133 4.483 0 8.133-3.65 8.133-8.133-.017-1.167-.983-2.134-2.15-2.134z" fill="#1C1D21"/>
</svg>
