<svg width="40" height="40" viewBox="0 0 40 40" fill="none" xmlns="http://www.w3.org/2000/svg">
    <path opacity=".4" d="M20 37c9.389 0 17-7.611 17-17S29.389 3 20 3 3 10.611 3 20s7.611 17 17 17z" fill="#E7E7FF"/>
    <path d="m21.74 19.96 3.858-3.856a1.265 1.265 0 0 0 0-1.777 1.266 1.266 0 0 0-1.778 0l-3.857 3.856-3.858-3.856a1.266 1.266 0 0 0-1.777 0 1.265 1.265 0 0 0 0 1.777l3.857 3.856-3.857 3.856a1.265 1.265 0 0 0 0 1.778c.251.251.57.368.889.368.318 0 .637-.117.888-.368l3.858-3.857 3.857 3.857c.252.251.57.368.89.368.318 0 .636-.117.888-.368a1.265 1.265 0 0 0 0-1.778l-3.857-3.856z" fill="#33F"/>
</svg>
