<svg width="90" height="90" viewBox="0 0 90 90" fill="none" xmlns="http://www.w3.org/2000/svg">
    <circle cx="45" cy="45" r="45" fill="#F4F4F6"/>
    <path fill-rule="evenodd" clip-rule="evenodd" d="M39.375 44.262a6.919 6.919 0 0 1-2.5 0V60a1.25 1.25 0 1 0 2.5 0V44.262z" fill="#1C1D21"/>
    <path opacity=".4" fill-rule="evenodd" clip-rule="evenodd" d="M33.955 28.767a1.25 1.25 0 0 1 1.028 1.439l-.869 5.21h2.761V30a1.25 1.25 0 0 1 2.5 0v5.417h2.76l-.868-5.212a1.25 1.25 0 1 1 2.466-.41l.937 5.622h.009a6.869 6.869 0 0 1 .32 2.109 6.875 6.875 0 1 1-13.428-2.11h.009l.937-5.621a1.25 1.25 0 0 1 1.438-1.028z" fill="#1C1D21"/>
    <path fill-rule="evenodd" clip-rule="evenodd" d="M58.125 51.25V60a1.25 1.25 0 1 1-2.5 0v-8.75h2.5z" fill="#1C1D21"/>
    <path opacity=".4" d="M48.125 51.25h10V30a1.236 1.236 0 0 0-1.672-1.172c-3.25 1.172-5.86 5.14-7.734 11.766a64.5 64.5 0 0 0-1.844 9.265 1.265 1.265 0 0 0 .313.97 1.281 1.281 0 0 0 .937.421z" fill="#1C1D21"/>
</svg>
