<svg width="42" height="42" viewBox="0 0 42 42" fill="none" xmlns="http://www.w3.org/2000/svg">
    <path opacity=".4" d="M21 3.5c-4.585 0-8.313 3.728-8.313 8.313 0 4.497 3.518 8.137 8.103 8.295.14-.018.28-.018.385 0h.122a8.292 8.292 0 0 0 8.015-8.296C29.313 7.229 25.585 3.5 21 3.5z" fill="#33F"/>
    <path d="M29.89 24.762c-4.883-3.255-12.845-3.255-17.763 0-2.222 1.488-3.447 3.5-3.447 5.653 0 2.153 1.225 4.148 3.43 5.617C14.56 37.678 17.78 38.5 21 38.5c3.22 0 6.44-.822 8.89-2.468 2.205-1.487 3.43-3.482 3.43-5.652-.017-2.152-1.225-4.147-3.43-5.617z" fill="#33F"/>
</svg>
