<svg width="100" height="100" viewBox="0 0 100 100" fill="none" xmlns="http://www.w3.org/2000/svg">
    <path opacity=".4" d="M67.458 8.333H32.541c-15.166 0-24.208 9.042-24.208 24.208v34.875c0 15.209 9.042 24.25 24.208 24.25h34.875c15.167 0 24.209-9.041 24.209-24.208V32.541c.041-15.166-9-24.208-24.167-24.208z" fill="#676B79"/>
    <path d="M64.583 42.209a7.833 7.833 0 1 0 0-15.667 7.833 7.833 0 0 0 0 15.667zM35.416 42.209a7.833 7.833 0 1 0 0-15.667 7.833 7.833 0 0 0 0 15.667zM35.083 77h30c2.917 0 5.292-2.375 5.292-5.333 0-11.209-9.125-20.334-20.333-20.334-11.209 0-20.334 9.125-20.334 20.334C29.75 74.583 32.167 77 35.083 77z" fill="#676B79"/>
</svg>
