<svg width="84" height="84" viewBox="0 0 84 84" fill="none" xmlns="http://www.w3.org/2000/svg">
    <circle cx="42" cy="42" r="42" fill="#E7E7FF"/>
    <path d="M50.333 59.917H33.667a1.26 1.26 0 0 1-1.25-1.25c0-.683.566-1.25 1.25-1.25h16.666c.684 0 1.25.567 1.25 1.25a1.26 1.26 0 0 1-1.25 1.25z" fill="#33F"/>
    <path opacity=".4" d="M52 53.666H32A6.665 6.665 0 0 1 25.333 47V32A6.665 6.665 0 0 1 32 25.333h20A6.665 6.665 0 0 1 58.667 32v15A6.665 6.665 0 0 1 52 53.666z" fill="#33F"/>
    <path d="M50.767 37.116h-6.134a1.26 1.26 0 0 1-1.25-1.25c0-.683.567-1.25 1.25-1.25h6.134c.683 0 1.25.567 1.25 1.25 0 .684-.55 1.25-1.25 1.25zM38.667 37.533c-.917 0-1.667-.75-1.667-1.666a1.66 1.66 0 0 1 1.667-1.667c.916 0 1.666.75 1.666 1.667a1.66 1.66 0 0 1-1.666 1.666zM33.417 37.533c-.917 0-1.667-.75-1.667-1.666a1.66 1.66 0 0 1 1.667-1.667h.016c.917 0 1.667.75 1.667 1.667 0 .916-.767 1.666-1.683 1.666zM50.767 46.767H33.25c-.683 0-1.267-.567-1.267-1.25 0-.684.55-1.25 1.234-1.25h17.55c.683 0 1.25.566 1.25 1.25 0 .683-.55 1.25-1.25 1.25z" fill="#33F"/>
</svg>
