<svg width="90" height="90" viewBox="0 0 90 90" fill="none" xmlns="http://www.w3.org/2000/svg">
    <circle cx="45" cy="45" r="45" fill="#E7E7FF"/>
    <path opacity=".4" d="M61.667 58.45V45.3c0-9.333-7.5-16.967-16.667-16.967-9.166 0-16.666 7.634-16.666 16.967v13.15c0 2.1 1.25 2.667 2.783 1.267l1.666-1.517a1.68 1.68 0 0 1 2.234 0l3.333 3.05a1.68 1.68 0 0 0 2.233 0l3.334-3.05a1.68 1.68 0 0 1 2.233 0l3.334 3.05a1.68 1.68 0 0 0 2.233 0l3.333-3.05a1.68 1.68 0 0 1 2.233 0l1.667 1.517c1.467 1.4 2.717.833 2.717-1.267z" fill="#33F"/>
    <path d="M45 51.783c-2.617 0-5.233-.816-7.417-2.45a1.25 1.25 0 0 1 1.5-2c3.484 2.617 8.35 2.617 11.834 0a1.25 1.25 0 0 1 1.5 2A12.37 12.37 0 0 1 45 51.783zM45 43.967a3.967 3.967 0 1 0 0-7.934 3.967 3.967 0 0 0 0 7.934z" fill="#33F"/>
</svg>
