<svg width="154" height="78" viewBox="0 0 154 78" fill="none" xmlns="http://www.w3.org/2000/svg">
    <g clip-path="url(#avuo8oph5a)">
        <path d="M108.32 1.198 53.584 32.8a8.927 8.927 0 0 0 8.927 15.462l54.736-31.602a8.927 8.927 0 0 0-8.927-15.462z" fill="#D3D4D9"/>
        <path d="M121.713 8.929a8.926 8.926 0 1 0-17.853 0v60.144a8.926 8.926 0 1 0 17.853 0V8.93zM153.85 31.855a8.927 8.927 0 0 0-17.854 0v37.216a8.927 8.927 0 0 0 17.854 0V31.855z" fill="#9C9FAB"/>
        <path d="M144.923 17.856a8.927 8.927 0 1 0 0-17.854 8.927 8.927 0 0 0 0 17.854z" fill="#D3D4D9"/>
        <path d="M.15 12.395v56.08c0 6.919 7.479 11.226 13.462 7.773l48.58-28.043c5.983-3.455 5.983-12.09 0-15.544l-48.58-28.04C7.629 1.168.15 5.487.15 12.396z" fill="#9C9FAB"/>
    </g>
    <defs>
        <clipPath id="avuo8oph5a">
            <path fill="#fff" transform="translate(.15)" d="M0 0h153.699v78H0z"/>
        </clipPath>
    </defs>
</svg>
