<svg width="90" height="90" viewBox="0 0 90 90" fill="none" xmlns="http://www.w3.org/2000/svg">
    <circle cx="45" cy="45" r="45" fill="#E7E7FF"/>
    <path fill-rule="evenodd" clip-rule="evenodd" d="M39.375 44.262a6.91 6.91 0 0 1-2.5 0V60a1.25 1.25 0 0 0 2.5 0V44.262z" fill="#33F"/>
    <path opacity=".4" fill-rule="evenodd" clip-rule="evenodd" d="M33.956 28.767a1.25 1.25 0 0 1 1.027 1.438l-.868 5.212h2.76V30a1.25 1.25 0 1 1 2.5 0v5.417h2.76l-.868-5.212a1.25 1.25 0 1 1 2.466-.41l.937 5.622h.009A6.872 6.872 0 0 1 45 37.525a6.875 6.875 0 1 1-13.428-2.108h.008l.937-5.623a1.25 1.25 0 0 1 1.439-1.027z" fill="#33F"/>
    <path fill-rule="evenodd" clip-rule="evenodd" d="M58.125 51.25V60a1.25 1.25 0 1 1-2.5 0v-8.75h2.5z" fill="#33F"/>
    <path opacity=".4" d="M48.125 51.25h10V30a1.234 1.234 0 0 0-1.672-1.172c-3.25 1.172-5.859 5.14-7.734 11.766a64.5 64.5 0 0 0-1.844 9.265 1.265 1.265 0 0 0 .313.97 1.282 1.282 0 0 0 .937.421z" fill="#33F"/>
</svg>
