<svg width="35" height="35" viewBox="0 0 35 35" fill="none" xmlns="http://www.w3.org/2000/svg">
    <path opacity=".4" d="M17.5 32.083c8.054 0 14.583-6.529 14.583-14.583S25.554 2.917 17.5 2.917 2.917 9.446 2.917 17.5 9.446 32.083 17.5 32.083z" fill="#F4F4F6"/>
    <path d="M15.662 23.742c-.277 0-.554-.102-.772-.321a1.1 1.1 0 0 1 0-1.546l4.375-4.375-4.375-4.375a1.1 1.1 0 0 1 0-1.546 1.1 1.1 0 0 1 1.545 0l5.148 5.148a1.1 1.1 0 0 1 0 1.546l-5.148 5.148c-.218.219-.495.32-.772.32z" fill="#676B79"/>
</svg>
