<svg width="84" height="84" viewBox="0 0 84 84" fill="none" xmlns="http://www.w3.org/2000/svg">
    <circle cx="42" cy="42" r="42" fill="#E7E7FF"/>
    <path opacity=".4" d="M58.667 55.45V42.3c0-9.334-7.5-16.967-16.667-16.967-9.167 0-16.667 7.633-16.667 16.967v13.15c0 2.1 1.25 2.666 2.784 1.266l1.666-1.516a1.68 1.68 0 0 1 2.234 0l3.333 3.05a1.68 1.68 0 0 0 2.233 0l3.334-3.05a1.68 1.68 0 0 1 2.233 0l3.333 3.05a1.68 1.68 0 0 0 2.234 0l3.333-3.05a1.68 1.68 0 0 1 2.233 0l1.667 1.516c1.467 1.4 2.717.834 2.717-1.266z" fill="#33F"/>
    <path d="M42 48.783c-2.617 0-5.233-.816-7.417-2.45a1.25 1.25 0 0 1 1.5-2c3.484 2.617 8.35 2.617 11.834 0a1.25 1.25 0 0 1 1.5 2A12.371 12.371 0 0 1 42 48.784zM42 40.967a3.967 3.967 0 1 0 0-7.934 3.967 3.967 0 0 0 0 7.934z" fill="#33F"/>
</svg>
