<svg width="90" height="90" viewBox="0 0 90 90" fill="none" xmlns="http://www.w3.org/2000/svg">
    <circle cx="45" cy="45" r="45" fill="#F4F4F6"/>
    <path opacity=".4" d="m61.1 42.4-1.633 6.967c-1.4 6.016-4.167 8.45-9.367 7.95a17.504 17.504 0 0 1-2.7-.45l-2.8-.667c-6.95-1.65-9.1-5.083-7.467-12.05l1.634-6.983C39.1 35.75 39.5 34.517 40 33.5c1.95-4.033 5.267-5.117 10.833-3.8l2.784.65c6.983 1.633 9.116 5.083 7.483 12.05z" fill="#1C1D21"/>
    <path d="M50.1 57.317c-1.033.7-2.333 1.283-3.917 1.8l-2.633.866c-6.617 2.134-10.1.35-12.25-6.266l-2.133-6.584c-2.134-6.616-.367-10.116 6.25-12.25l2.633-.866c.683-.217 1.333-.4 1.95-.517-.5 1.017-.9 2.25-1.233 3.667l-1.634 6.983c-1.633 6.967.517 10.4 7.467 12.05l2.8.667c.967.233 1.867.383 2.7.45zM54.15 42.517c-.1 0-.2-.017-.317-.034l-8.083-2.05a1.25 1.25 0 0 1-.9-1.516 1.249 1.249 0 0 1 1.517-.9l8.083 2.05c.667.166 1.067.85.9 1.516-.133.55-.65.934-1.2.934z" fill="#1C1D21"/>
    <path d="M49.267 48.15c-.1 0-.2-.017-.317-.033l-4.85-1.234a1.249 1.249 0 0 1-.9-1.516 1.249 1.249 0 0 1 1.517-.9l4.85 1.233a1.25 1.25 0 0 1 .9 1.517 1.214 1.214 0 0 1-1.2.933z" fill="#1C1D21"/>
</svg>
