<svg width="84" height="84" viewBox="0 0 84 84" fill="none" xmlns="http://www.w3.org/2000/svg">
    <circle cx="42" cy="42" r="42" fill="#E7E7FF"/>
    <path d="M39.15 39.233v13.45c0 3.3-2.7 5.984-5.983 5.984a5.99 5.99 0 0 1-5.984-5.984c0-3.283 2.684-5.966 5.984-5.966 1.383 0 2.633.483 3.65 1.266V39.9l2.333-.667zM56.817 34.2v15.267a5.99 5.99 0 0 1-5.984 5.983c-3.283 0-5.983-2.683-5.983-5.983 0-3.283 2.7-5.967 5.983-5.967 1.4 0 2.65.483 3.667 1.283v-9.916l2.317-.667z" fill="#33F"/>
    <path opacity=".4" d="M56.817 30.634V34.2l-20 5.7v-6.65c0-2.45 1.483-4.35 3.833-4.983l9.633-2.633c1.95-.534 3.6-.35 4.767.55 1.183.883 1.767 2.383 1.767 4.45z" fill="#33F"/>
</svg>
